<svg width="40" height="40" viewBox="0 0 40 40" fill="none" xmlns="http://www.w3.org/2000/svg">
<circle cx="20.0009" cy="20.0009" r="19.0009" fill="white" stroke="#5A56BC" stroke-width="2"/>
<path fill-rule="evenodd" clip-rule="evenodd" d="M26.3853 10.7929C25.9947 10.4024 25.3616 10.4024 24.9711 10.7929L11.7319 24.0321C11.6037 24.1602 11.5128 24.3208 11.4689 24.4966L10.526 28.2679C10.3429 29.0003 11.0063 29.6636 11.7387 29.4805L15.51 28.5377C15.6858 28.4938 15.8464 28.4029 15.9745 28.2747L26.3852 17.864L26.3853 17.8641L27.0924 17.157L27.0923 17.1569L29.2137 15.0355C29.6042 14.645 29.6042 14.0118 29.2137 13.6213L26.3853 10.7929ZM27.0923 17.1569L22.8498 12.9144L22.1427 13.6215L26.3852 17.864L27.0923 17.1569Z" fill="#5A56BC"/>
</svg>
